<svg viewBox="0 0 71 55" fill="none" xmlns="http://www.w3.org/2000/svg">
<path d="M57.9425 0.266061C57.7761 0.348114 57.6653 0.556573 57.6653 0.88922V6.43335H52.1211C49.6817 6.43335 47.6947 7.2561 46.0226 8.9282L35.349 19.6018L40.0616 24.3143L50.7351 13.6407L50.8039 13.572C51.0057 13.4367 51.9127 13.0863 52.1211 13.0863H57.6653V18.6304C57.6653 19.2957 58.1221 19.4887 58.5656 19.0473L70.0708 10.4539C70.5143 10.0104 70.5143 9.51145 70.0708 9.06792L58.5656 0.47452C58.3439 0.252755 58.1088 0.184008 57.9425 0.266061ZM0.00634766 6.43335V13.0863H12.2034C12.4252 13.0863 13.4874 13.5387 13.5895 13.6407L46.0226 46.0739C47.6947 47.746 49.6817 48.5687 52.1211 48.5687H57.6653V54.1128C57.6653 54.7781 58.1221 54.9711 58.5656 54.5298L70.0708 45.9364C70.5143 45.4928 70.5143 44.9939 70.0708 44.5503L58.5656 35.9569C58.1221 35.5134 57.6653 35.7063 57.6653 36.3738V41.918H52.1211C51.8994 41.918 50.8371 41.4656 50.7351 41.3636L18.302 8.93042C16.6299 7.25831 14.6428 6.43556 12.2034 6.43556H0.00634766V6.43335ZM24.263 30.69L13.5895 41.3636C13.6826 41.2704 11.9817 41.918 12.2034 41.918H0.00634766V48.5709H12.2034C14.6096 48.5709 16.3926 47.9522 18.2332 46.1448L18.302 46.0761L28.9755 35.4025L24.263 30.69Z" />
</svg>
