<svg width="24" height="24" viewBox="0 0 24 24" fill="none" xmlns="http://www.w3.org/2000/svg">
<path d="M11.9991 2C6.47773 2 2 6.47712 2 12.0003C2 16.4185 4.86504 20.1663 8.83876 21.4886C9.33908 21.5807 9.52141 21.2719 9.52141 21.0067C9.52141 20.7698 9.51281 20.1405 9.5079 19.3062C6.72636 19.9103 6.13948 17.9655 6.13948 17.9655C5.68458 16.8102 5.02894 16.5026 5.02894 16.5026C4.121 15.8826 5.0977 15.8948 5.0977 15.8948C6.10142 15.9654 6.62936 16.9256 6.62936 16.9256C7.52135 18.4535 8.97013 18.0122 9.53983 17.7562C9.63068 17.1103 9.88913 16.6696 10.1746 16.4197C7.95414 16.1674 5.61951 15.3092 5.61951 11.4773C5.61951 10.3858 6.00933 9.49256 6.64901 8.79395C6.54587 8.54102 6.20271 7.5238 6.74723 6.14746C6.74723 6.14746 7.58642 5.87857 9.49685 7.17266C10.2943 6.95043 11.1501 6.83993 12.0003 6.83563C12.8499 6.83993 13.7051 6.95043 14.5038 7.17266C16.413 5.87857 17.2509 6.14746 17.2509 6.14746C17.7967 7.5238 17.4535 8.54102 17.351 8.79395C17.9919 9.49256 18.3786 10.3858 18.3786 11.4773C18.3786 15.319 16.0403 16.1643 13.8131 16.4117C14.1716 16.7205 14.4915 17.3307 14.4915 18.2639C14.4915 19.6003 14.4792 20.6789 14.4792 21.0067C14.4792 21.2744 14.6597 21.5856 15.1668 21.488C19.1374 20.1626 22 16.4173 22 12.0003C22 6.47712 17.5223 2 11.9991 2Z" fill="#EC404A"/>
</svg>
