<svg width="24" height="24" viewBox="0 0 24 24" fill="none" xmlns="http://www.w3.org/2000/svg">
<path fill-rule="evenodd" clip-rule="evenodd" d="M12.3491 4C10.0816 4 9.79727 4.00953 8.90677 4.05015C8.01806 4.09066 7.41115 4.23151 6.88013 4.43749C6.33108 4.65044 5.86546 4.93539 5.40131 5.39867C4.93716 5.86194 4.65167 6.32671 4.43835 6.8747C4.23187 7.40478 4.09076 8.01055 4.05025 8.89754C4.00959 9.78636 4 10.0701 4 12.3333C4 14.5966 4.00959 14.8803 4.05025 15.7691C4.09076 16.6561 4.23187 17.2619 4.43835 17.792C4.65167 18.34 4.93716 18.8047 5.40131 19.268C5.86546 19.7313 6.33108 20.0162 6.88013 20.2292C7.41115 20.4352 8.01806 20.576 8.90677 20.6165C9.79727 20.6571 10.0816 20.6667 12.3491 20.6667C14.6165 20.6667 14.9009 20.6571 15.7914 20.6165C16.6801 20.576 17.287 20.4352 17.818 20.2292C18.3671 20.0162 18.8327 19.7313 19.2968 19.268C19.761 18.8047 20.0464 18.34 20.2598 17.792C20.4662 17.2619 20.6074 16.6561 20.6479 15.7691C20.6886 14.8803 20.6981 14.5966 20.6981 12.3333C20.6981 10.0701 20.6886 9.78636 20.6479 8.89754C20.6074 8.01055 20.4662 7.40478 20.2598 6.8747C20.0464 6.32671 19.761 5.86194 19.2968 5.39867C18.8327 4.93539 18.3671 4.65044 17.818 4.43749C17.287 4.23151 16.6801 4.09066 15.7914 4.05015C14.9009 4.00953 14.6165 4 12.3491 4ZM12.3491 5.50149C14.5784 5.50149 14.8424 5.50996 15.7228 5.55004C16.5368 5.58711 16.9789 5.72292 17.2731 5.83699C17.6628 5.98818 17.941 6.16877 18.2331 6.46037C18.5253 6.752 18.7062 7.02957 18.8576 7.41855C18.9719 7.71219 19.108 8.15348 19.1451 8.96592C19.1853 9.84469 19.1938 10.1082 19.1938 12.3333C19.1938 14.5585 19.1853 14.822 19.1451 15.7007C19.108 16.5132 18.9719 16.9545 18.8576 17.2481C18.7062 17.6371 18.5253 17.9147 18.2331 18.2063C17.941 18.4979 17.6628 18.6785 17.2731 18.8296C16.9789 18.9437 16.5368 19.0796 15.7228 19.1166C14.8425 19.1567 14.5785 19.1651 12.3491 19.1651C10.1196 19.1651 9.8556 19.1567 8.97531 19.1166C8.16134 19.0796 7.71921 18.9437 7.42502 18.8296C7.0353 18.6785 6.75717 18.4979 6.46502 18.2063C6.17291 17.9147 5.99198 17.6371 5.8405 17.2481C5.72618 16.9545 5.59015 16.5132 5.55297 15.7007C5.51286 14.822 5.50433 14.5585 5.50433 12.3333C5.50433 10.1082 5.51286 9.84469 5.55297 8.96592C5.59015 8.15348 5.72618 7.71219 5.8405 7.41855C5.99198 7.02957 6.17291 6.752 6.46502 6.46037C6.75717 6.16877 7.0353 5.98818 7.42502 5.83699C7.71921 5.72292 8.16134 5.58711 8.97531 5.55004C9.85575 5.50996 10.1198 5.50149 12.3491 5.50149ZM12.3491 15.1462C10.7926 15.1462 9.53085 13.8868 9.53085 12.3333C9.53085 10.7798 10.7926 9.52046 12.3491 9.52046C13.9055 9.52046 15.1673 10.7798 15.1673 12.3333C15.1673 13.8868 13.9055 15.1462 12.3491 15.1462ZM12.3491 8C9.95132 8 8.00755 9.94014 8.00755 12.3333C8.00755 14.7266 9.95132 16.6667 12.3491 16.6667C14.7468 16.6667 16.6906 14.7266 16.6906 12.3333C16.6906 9.94014 14.7468 8 12.3491 8ZM16.0226 8.33333C16.0226 8.88559 16.4712 9.33333 17.0245 9.33333C17.5779 9.33333 18.0264 8.88559 18.0264 8.33333C18.0264 7.78104 17.5779 7.33333 17.0245 7.33333C16.4712 7.33333 16.0226 7.78104 16.0226 8.33333Z" fill="#EC404A"/>
</svg>
